<svg width="40" height="40" viewBox="0 0 40 40" fill="none" xmlns="http://www.w3.org/2000/svg">
<path d="M34.6563 27.4906C33.7891 25.9969 32.5 21.7703 32.5 16.25C32.5 12.9348 31.1831 9.75537 28.8389 7.41117C26.4946 5.06696 23.3152 3.75 20 3.75C16.6848 3.75 13.5054 5.06696 11.1612 7.41117C8.81698 9.75537 7.50002 12.9348 7.50002 16.25C7.50002 21.7719 6.20939 25.9969 5.34221 27.4906C5.12076 27.8704 5.00335 28.3018 5.00185 28.7414C5.00034 29.181 5.11477 29.6133 5.33361 29.9945C5.55245 30.3758 5.86796 30.6926 6.24831 30.913C6.62866 31.1334 7.06041 31.2497 7.50002 31.25H13.8766C14.165 32.6612 14.9319 33.9294 16.0477 34.8403C17.1635 35.7511 18.5597 36.2486 20 36.2486C21.4404 36.2486 22.8365 35.7511 23.9523 34.8403C25.0681 33.9294 25.8351 32.6612 26.1235 31.25H32.5C32.9395 31.2494 33.371 31.133 33.7512 30.9124C34.1313 30.6919 34.4466 30.3751 34.6653 29.9938C34.8839 29.6126 34.9982 29.1805 34.9966 28.741C34.9951 28.3016 34.8777 27.8703 34.6563 27.4906ZM20 33.75C19.2247 33.7498 18.4686 33.5092 17.8356 33.0615C17.2027 32.6138 16.7241 31.9809 16.4656 31.25H23.5344C23.276 31.9809 22.7973 32.6138 22.1644 33.0615C21.5315 33.5092 20.7753 33.7498 20 33.75ZM7.50002 28.75C8.70315 26.6812 10 21.8875 10 16.25C10 13.5978 11.0536 11.0543 12.929 9.17893C14.8043 7.30357 17.3479 6.25 20 6.25C22.6522 6.25 25.1957 7.30357 27.0711 9.17893C28.9465 11.0543 30 13.5978 30 16.25C30 21.8828 31.2938 26.6766 32.5 28.75H7.50002Z" fill="#818181"/>
</svg>
