<svg width="256" height="256" viewBox="0 0 256 256" fill="none" xmlns="http://www.w3.org/2000/svg">
<path d="M212.24 83.76L156.24 27.76C155.116 26.6345 153.591 26.0014 152 26H56C52.287 26 48.726 27.475 46.1005 30.1005C43.475 32.726 42 36.287 42 40V216C42 219.713 43.475 223.274 46.1005 225.899C48.726 228.525 52.287 230 56 230H200C203.713 230 207.274 228.525 209.899 225.899C212.525 223.274 214 219.713 214 216V88C213.999 86.4092 213.366 84.8841 212.24 83.76ZM158 46.48L193.52 82H158V46.48ZM202 216C202 216.53 201.789 217.039 201.414 217.414C201.039 217.789 200.53 218 200 218H56C55.4696 218 54.9609 217.789 54.5858 217.414C54.2107 217.039 54 216.53 54 216V40C54 39.4696 54.2107 38.9609 54.5858 38.5858C54.9609 38.2107 55.4696 38 56 38H146V88C146 89.5913 146.632 91.1174 147.757 92.2426C148.883 93.3679 150.409 94 152 94H202V216ZM156.24 123.76C157.364 124.885 157.995 126.41 157.995 128C157.995 129.59 157.364 131.115 156.24 132.24L136.49 152L156.24 171.76C156.829 172.309 157.302 172.972 157.63 173.708C157.958 174.444 158.135 175.238 158.149 176.044C158.163 176.849 158.015 177.65 157.713 178.397C157.411 179.144 156.962 179.823 156.392 180.392C155.823 180.962 155.144 181.411 154.397 181.713C153.65 182.015 152.849 182.163 152.044 182.149C151.238 182.135 150.444 181.958 149.708 181.63C148.972 181.302 148.309 180.829 147.76 180.24L128 160.49L108.24 180.24C107.103 181.3 105.598 181.877 104.044 181.849C102.489 181.822 101.006 181.192 99.907 180.093C98.8077 178.994 98.178 177.511 98.1506 175.956C98.1232 174.402 98.7002 172.897 99.76 171.76L119.51 152L99.76 132.24C99.1705 131.691 98.6977 131.028 98.3698 130.292C98.0418 129.556 97.8655 128.762 97.8513 127.956C97.8371 127.151 97.9852 126.35 98.287 125.603C98.5888 124.856 99.0379 124.177 99.6077 123.608C100.177 123.038 100.856 122.589 101.603 122.287C102.35 121.985 103.151 121.837 103.956 121.851C104.762 121.865 105.556 122.042 106.292 122.37C107.028 122.698 107.691 123.171 108.24 123.76L128 143.51L147.76 123.76C148.885 122.636 150.41 122.005 152 122.005C153.59 122.005 155.115 122.636 156.24 123.76Z" fill="#3B3A3A"/>
</svg>
