<svg width="40" height="40" viewBox="0 0 40 40" fill="none" xmlns="http://www.w3.org/2000/svg">
<path d="M36.1905 33.4311L28.3687 25.6093C30.6402 22.8849 31.774 19.3897 31.5341 15.8507C31.2942 12.3117 29.6991 9.00149 27.0807 6.6086C24.4623 4.21572 21.0222 2.92445 17.476 3.00342C13.9297 3.08239 10.5505 4.52552 8.0412 7.03259C5.53192 9.53966 4.0858 12.9176 4.0037 16.4638C3.92159 20.0099 5.20982 23.4512 7.60039 26.0717C9.99096 28.6923 13.2998 30.2902 16.8386 30.5332C20.3773 30.7763 23.8736 29.6456 26.5999 27.3764L34.4218 35.1999C34.5379 35.316 34.6758 35.4081 34.8275 35.471C34.9793 35.5339 35.1419 35.5662 35.3062 35.5662C35.4704 35.5662 35.633 35.5339 35.7848 35.471C35.9365 35.4081 36.0744 35.316 36.1905 35.1999C36.3067 35.0837 36.3988 34.9459 36.4616 34.7941C36.5245 34.6424 36.5568 34.4798 36.5568 34.3155C36.5568 34.1513 36.5245 33.9886 36.4616 33.8369C36.3988 33.6851 36.3067 33.5473 36.1905 33.4311ZM6.55615 16.8155C6.55615 14.5905 7.21595 12.4154 8.45212 10.5653C9.68828 8.71529 11.4453 7.27335 13.501 6.42186C15.5566 5.57038 17.8186 5.34759 20.0009 5.78167C22.1832 6.21576 24.1878 7.28722 25.7611 8.86056C27.3344 10.4339 28.4059 12.4385 28.84 14.6207C29.2741 16.803 29.0513 19.065 28.1998 21.1207C27.3483 23.1764 25.9064 24.9334 24.0563 26.1695C22.2063 27.4057 20.0312 28.0655 17.8061 28.0655C14.8235 28.0622 11.9639 26.8759 9.85485 24.7668C7.74578 22.6577 6.55946 19.7982 6.55615 16.8155Z" fill="#ABABAB"/>
</svg>
